<svg width="62" height="17" viewBox="0 0 62 17" fill="none" xmlns="http://www.w3.org/2000/svg">
    <path
        d="M16.736 0.199999V17H11.168V4.592H6.056V17H0.488V0.199999H16.736ZM34.622 0.199999V17H29.054V11.624C27.934 11.96 26.918 12.128 26.006 12.128C23.542 12.128 21.662 11.544 20.366 10.376C19.086 9.208 18.446 7.504 18.446 5.264V0.199999H24.014V4.64C24.014 5.664 24.238 6.424 24.686 6.92C25.134 7.4 25.814 7.64 26.726 7.64C27.67 7.64 28.446 7.512 29.054 7.256V0.199999H34.622ZM61.0376 0.199999V17H37.5896V0.199999H43.1576V12.608H46.5416V0.199999H52.1096V12.608H55.4696V0.199999H61.0376Z"
        fill="white"/>
</svg>
