<?xml version="1.0" standalone="no"?>
<!DOCTYPE svg PUBLIC "-//W3C//DTD SVG 20010904//EN"
 "http://www.w3.org/TR/2001/REC-SVG-20010904/DTD/svg10.dtd">
<svg version="1.0" xmlns="http://www.w3.org/2000/svg"
 width="100.000000pt" height="100.000000pt" viewBox="0 0 100.000000 100.000000"
 preserveAspectRatio="xMidYMid meet">
<metadata>
Created by potrace 1.14, written by Peter Selinger 2001-2017
</metadata>
<g transform="translate(0.000000,100.000000) scale(0.100000,-0.100000)"
fill="#000000" stroke="none">
<path d="M122 980 c-18 -11 -41 -34 -52 -52 -19 -31 -20 -51 -20 -428 0 -377
1 -397 20 -428 11 -18 34 -41 52 -52 31 -19 51 -20 373 -20 379 0 387 1 432
69 23 34 23 35 23 428 0 426 1 421 -55 473 l-27 25 -356 3 c-343 2 -358 2
-390 -18z"/>
</g>
</svg>
